<svg width="512" height="512" viewBox="0 0 631 631" fill="none" xmlns="http://www.w3.org/2000/svg">
<path d="M60.0952 39.4375H157.75V395.314L60.0952 300.688V39.4375Z" fill="white"/>
<path d="M59.1562 32.1296H157.75V387.067L59.1562 292.691V32.1296Z" fill="white"/>
<path d="M315.5 603.973H216.906V32.1296H315.5V603.973Z" fill="white"/>
<path d="M374.656 603.973C397.962 603.973 421.039 599.383 442.571 590.464C464.102 581.546 483.666 568.473 500.146 551.994C516.625 535.514 529.697 515.95 538.616 494.419C547.535 472.887 552.125 449.81 552.125 426.505C552.125 403.199 547.535 380.122 538.616 358.59C529.697 337.059 516.625 317.495 500.146 301.015C483.666 284.536 464.102 271.464 442.571 262.545C421.039 253.626 397.962 249.036 374.656 249.036L374.656 426.505L374.656 603.973Z" fill="white"/>
<path d="M374.656 390.721C397.962 390.721 421.039 386.131 442.571 377.212C464.102 368.293 483.666 355.221 500.146 338.742C516.625 322.262 529.697 302.698 538.616 281.167C547.535 259.635 552.125 236.558 552.125 213.252C552.125 189.947 547.535 166.869 538.616 145.338C529.697 123.806 516.625 104.242 500.146 87.7629C483.666 71.2834 464.102 58.2111 442.571 49.2925C421.039 40.3739 397.962 35.7835 374.656 35.7835L374.656 213.252L374.656 390.721Z" fill="white"/>
</svg>
