<svg width="512" height="512" viewBox="0 0 638 638" fill="none" xmlns="http://www.w3.org/2000/svg">
<path d="M59.8125 451.174L219.312 451.174L219.312 610.674L59.8125 451.174Z" fill="white"/>
<path d="M69.8125 391.361C64.2897 391.361 59.8125 386.884 59.8125 381.361L59.8125 241.861C59.8125 236.338 64.2896 231.861 69.8125 231.861L209.312 231.861C214.835 231.861 219.312 236.338 219.312 241.861L219.312 381.361C219.312 386.884 214.835 391.361 209.312 391.361L69.8125 391.361Z" fill="white"/>
<path d="M59.8125 191.986L59.8125 32.4861L219.312 32.4861L219.312 191.986L59.8125 191.986Z" fill="white"/>
<path d="M289.094 610.674C365.766 610.674 439.298 580.216 493.514 526C547.729 471.784 578.187 398.252 578.187 321.58C578.187 244.907 547.729 171.375 493.514 117.16C439.298 62.9442 365.766 32.4862 289.094 32.4862L289.094 321.58L289.094 610.674Z" fill="white"/>
</svg>
