<svg width="512" height="512" viewBox="0 0 629 641" fill="none" xmlns="http://www.w3.org/2000/svg">
<path d="M314.005 640.352C251.901 640.352 191.191 621.936 139.553 587.432C87.9154 552.929 47.6686 503.888 23.9022 446.511C0.135913 389.134 -6.08244 325.998 6.03353 265.087C18.1495 204.176 48.0556 148.225 91.9701 104.311C135.885 60.3965 191.835 30.4904 252.746 18.3744C313.657 6.25844 376.793 12.4768 434.17 36.2431C491.547 60.0095 540.588 100.256 575.091 151.894C609.595 203.532 628.011 264.242 628.011 326.346H530.669C530.669 283.494 517.962 241.605 494.155 205.974C470.347 170.344 436.509 142.574 396.919 126.175C357.329 109.776 313.765 105.486 271.736 113.846C229.708 122.206 191.102 142.841 160.801 173.142C130.5 203.443 109.865 242.049 101.505 284.077C93.1448 326.106 97.4355 369.67 113.834 409.26C130.233 448.85 158.003 482.688 193.634 506.496C229.264 530.303 271.153 543.01 314.005 543.01L314.005 640.352Z" fill="white"/>
<path d="M471 326.352C471 239.625 400.727 169.352 314.023 169.352C227.296 169.352 157 239.625 157 326.352L314 326.352L314.023 483.352C400.727 483.352 471 413.087 471 326.352Z" fill="white"/>
</svg>
