<svg width="512" height="512" viewBox="0 0 623 623" fill="none" xmlns="http://www.w3.org/2000/svg">
<path d="M311.5 467.25C274.428 467.25 237.72 459.948 203.47 445.761C169.22 431.575 138.1 410.781 111.886 384.567C85.6723 358.353 64.8784 327.233 50.6917 292.983C36.5049 258.734 29.2031 222.025 29.2031 184.953L116.715 184.953C116.715 210.533 121.753 235.862 131.542 259.494C141.331 283.126 155.679 304.599 173.766 322.687C191.854 340.774 213.327 355.122 236.959 364.911C260.591 374.7 285.921 379.738 311.5 379.738L311.5 467.25Z" fill="white"/>
<path d="M311.5 155.75C348.572 155.75 385.28 163.052 419.53 177.239C453.78 191.425 484.9 212.219 511.114 238.433C537.328 264.647 558.122 295.767 572.308 330.017C586.495 364.266 593.797 400.975 593.797 438.047L506.285 438.047C506.285 412.467 501.247 387.138 491.458 363.506C481.669 339.874 467.321 318.401 449.234 300.313C431.146 282.226 409.673 267.878 386.041 258.089C362.409 248.3 337.079 243.262 311.5 243.262L311.5 155.75Z" fill="white"/>
<path d="M467.25 311.5C467.25 348.572 459.948 385.28 445.761 419.53C431.575 453.78 410.781 484.9 384.567 511.114C358.353 537.328 327.233 558.122 292.983 572.308C258.734 586.495 222.025 593.797 184.953 593.797L184.953 506.285C210.533 506.285 235.862 501.247 259.494 491.458C283.126 481.669 304.599 467.321 322.687 449.234C340.774 431.146 355.122 409.673 364.911 386.041C374.7 362.409 379.738 337.079 379.738 311.5L467.25 311.5Z" fill="white"/>
<path d="M155.75 311.5C155.75 274.428 163.052 237.72 177.239 203.47C191.425 169.22 212.219 138.1 238.433 111.886C264.647 85.6723 295.767 64.8784 330.017 50.6917C364.266 36.5049 400.975 29.2031 438.047 29.2031L438.047 116.715C412.467 116.715 387.138 121.753 363.506 131.542C339.874 141.331 318.401 155.679 300.313 173.766C282.226 191.854 267.878 213.327 258.089 236.959C248.3 260.591 243.262 285.921 243.262 311.5L155.75 311.5Z" fill="white"/>
</svg>
