<svg width="512" height="512" viewBox="0 0 299 299" fill="none" xmlns="http://www.w3.org/2000/svg">
<path d="M74.75 276.85H28.0312V24.5684H74.75V276.85Z" fill="white"/>
<path d="M149.5 276.85H102.781V24.5684L149.5 69.3279V276.85Z" fill="white"/>
<path d="M177.531 109.318C177.531 103.796 182.008 99.3184 187.531 99.3184L242.281 99.3184C247.804 99.3184 252.281 103.796 252.281 109.318L252.281 164.068C252.281 169.591 247.804 174.068 242.281 174.068L187.531 174.068C182.008 174.068 177.531 169.591 177.531 164.068L177.531 109.318Z" fill="white"/>
<path d="M177.531 212.1C177.531 206.577 182.008 202.1 187.531 202.1L242.281 202.1C247.804 202.1 252.281 206.577 252.281 212.1L252.281 266.85C252.281 272.372 247.804 276.85 242.281 276.85L187.531 276.85C182.008 276.85 177.531 272.372 177.531 266.85L177.531 212.1Z" fill="white"/>
<path d="M177.531 276.85L177.531 202.1L252.281 202.1L252.281 276.85L177.531 276.85Z" fill="white"/>
</svg>
