<svg width="50" height="50" viewBox="0 0 32 33" fill="none" xmlns="http://www.w3.org/2000/svg">
<path d="M8 3H3V30H8V3Z" fill="white"/>
<path d="M16 3H11V30L16 25.2097V3Z" fill="white"/>
<path d="M19 18C19 20.2091 20.7909 22 23 22C25.2091 22 27 20.2091 27 18C27 15.7909 25.2091 14 23 14C20.7909 14 19 15.7909 19 18Z" fill="white"/>
<path d="M19 7C19 9.20914 20.7909 11 23 11C25.2091 11 27 9.20914 27 7C27 4.79086 25.2091 3 23 3C20.7909 3 19 4.79086 19 7Z" fill="white"/>
<path d="M19 3L19 11L27 11L27 3L19 3Z" fill="white"/>
</svg>
