<svg width="512" height="512" viewBox="0 0 623 623" fill="none" xmlns="http://www.w3.org/2000/svg">
<path d="M301.766 596.316C226.896 596.316 155.093 566.574 102.152 513.633C49.2107 460.692 19.4688 388.889 19.4688 314.019C19.4687 239.149 49.2106 167.346 102.152 114.405C155.093 61.4642 226.896 31.7223 301.766 31.7223L301.766 119.234C250.105 119.234 200.561 139.756 164.032 176.286C127.503 212.815 106.981 262.359 106.981 314.019C106.981 365.679 127.503 415.224 164.032 451.753C200.561 488.282 250.106 508.804 301.766 508.804L301.766 596.316Z" fill="white"/>
<path d="M350.438 323.754H623L350.438 596.316V323.754Z" fill="white"/>
<path d="M447.781 31.7222H350.438V265.347H447.781V31.7222Z" fill="white"/>
<path d="M603.531 31.7222H506.188V265.347H603.531V31.7222Z" fill="white"/>
</svg>
