<svg width="50" height="50" viewBox="0 0 32 32" fill="none" xmlns="http://www.w3.org/2000/svg">
<path d="M15.5 1.37061C11.6544 1.37061 7.96623 2.89828 5.24695 5.61756C2.52767 8.33683 1 12.025 1 15.8706C1 19.7162 2.52767 23.4044 5.24695 26.1237C7.96623 28.8429 11.6544 30.3706 15.5 30.3706V25.8756C12.8465 25.8756 10.3017 24.8215 8.4254 22.9452C6.54909 21.0689 5.495 18.5241 5.495 15.8706C5.495 13.2171 6.5491 10.6723 8.4254 8.796C10.3017 6.9197 12.8465 5.86561 15.5 5.86561V1.37061Z" fill="white"/>
<path d="M18 15.3706H32L18 1.37061V15.3706Z" fill="white"/>
<path d="M23 30.3706H18V18.3706H23V30.3706Z" fill="white"/>
<path d="M31 30.3706H26V18.3706H31V30.3706Z" fill="white"/>
</svg>
