<svg width="512" height="512" viewBox="0 0 627 627" fill="none" xmlns="http://www.w3.org/2000/svg">
<path d="M235.125 462.989L235.125 600.145L587.812 600.145L587.812 462.989L235.125 462.989Z" fill="white"/>
<path d="M239.125 247.457C236.916 247.457 235.125 249.248 235.125 251.457L235.125 380.614C235.125 382.823 236.916 384.614 239.125 384.614L368.281 384.614C370.49 384.614 372.281 382.823 372.281 380.614L372.281 251.457C372.281 249.248 370.49 247.457 368.281 247.457L239.125 247.457Z" fill="white"/>
<path d="M450.656 384.614L587.812 384.614L587.812 31.926L450.656 31.926L450.656 384.614Z" fill="white"/>
<path d="M372.281 169.082L372.281 31.926L19.5938 31.926L19.5938 169.082L372.281 169.082Z" fill="white"/>
<path d="M156.75 247.457L19.5938 247.457L19.5938 600.145L156.75 600.145L156.75 247.457Z" fill="white"/>
</svg>
