<svg width="50" height="50" viewBox="0 0 32 32" fill="none" xmlns="http://www.w3.org/2000/svg">
<path d="M12 8.37061L12 1.37061L30 1.37061L30 8.3706L12 8.37061Z" fill="white"/>
<path d="M15.5 19.3706C13.567 19.3706 12 17.8036 12 15.8706C12 13.9376 13.567 12.3706 15.5 12.3706C17.433 12.3706 19 13.9376 19 15.8706C19 17.8036 17.433 19.3706 15.5 19.3706Z" fill="white"/>
<path d="M23 12.3706L30 12.3706L30 30.3706L23 30.3706L23 12.3706Z" fill="white"/>
<path d="M19 23.3706L19 30.3706L1 30.3706L1 23.3706L19 23.3706Z" fill="white"/>
<path d="M8 19.3706L1 19.3706L1 1.3706L8 1.37061L8 19.3706Z" fill="white"/>
</svg>
