<svg width="50" height="50" viewBox="0 0 32 32" fill="none" xmlns="http://www.w3.org/2000/svg">
<path d="M3 9.3706L11 9.37061L11 1.37061L3 9.3706Z" fill="white"/>
<path d="M7 12.3706C4.79086 12.3706 3 14.1615 3 16.3706C3 18.5797 4.79086 20.3706 7 20.3706C9.20914 20.3706 11 18.5797 11 16.3706C11 14.1615 9.20914 12.3706 7 12.3706Z" fill="white"/>
<path d="M3 22.3706L3 30.3706L11 30.3706L11 22.3706L3 22.3706Z" fill="white"/>
<path d="M14.5 1.3706C18.3456 1.3706 22.0338 2.89828 24.753 5.61756C27.4723 8.33683 29 12.025 29 15.8706C29 19.7162 27.4723 23.4044 24.753 26.1237C22.0338 28.8429 18.3456 30.3706 14.5 30.3706L14.5 15.8706L14.5 1.3706Z" fill="white"/>
</svg>
