<svg width="50" height="50" viewBox="0 0 32 33" fill="none" xmlns="http://www.w3.org/2000/svg">
<path d="M3.04762 30.6294H8V12.5818L3.04762 17.3805V30.6294Z" fill="white"/>
<path d="M3 31H8V13L3 17.7861V31Z" fill="white"/>
<path d="M16 2H11V31H16V2Z" fill="white"/>
<path d="M19 2C20.1819 2 21.3522 2.23279 22.4442 2.68508C23.5361 3.13738 24.5282 3.80031 25.364 4.63604C26.1997 5.47177 26.8626 6.46392 27.3149 7.55585C27.7672 8.64778 28 9.8181 28 11C28 12.1819 27.7672 13.3522 27.3149 14.4442C26.8626 15.5361 26.1997 16.5282 25.364 17.364C24.5282 18.1997 23.5361 18.8626 22.4442 19.3149C21.3522 19.7672 20.1819 20 19 20L19 11V2Z" fill="white"/>
<path d="M19 12.8147C20.1819 12.8147 21.3522 13.0475 22.4442 13.4998C23.5361 13.9521 24.5282 14.615 25.364 15.4507C26.1997 16.2865 26.8626 17.2786 27.3149 18.3705C27.7672 19.4625 28 20.6328 28 21.8147C28 22.9966 27.7672 24.1669 27.3149 25.2588C26.8626 26.3508 26.1997 27.3429 25.364 28.1787C24.5282 29.0144 23.5361 29.6773 22.4442 30.1296C21.3522 30.5819 20.1819 30.8147 19 30.8147L19 21.8147V12.8147Z" fill="white"/>
</svg>
