<svg width="50" height="50" viewBox="0 0 32 32" fill="none" xmlns="http://www.w3.org/2000/svg">
<path d="M16 8C14.0958 8 12.2103 8.37505 10.4511 9.10375C8.69187 9.83244 7.0934 10.9005 5.74695 12.247C4.4005 13.5934 3.33244 15.1919 2.60375 16.9511C1.87505 18.7103 1.5 20.5958 1.5 22.5H5.995C5.995 21.1861 6.25379 19.8851 6.75658 18.6713C7.25938 17.4574 7.99635 16.3544 8.9254 15.4254C9.85445 14.4963 10.9574 13.7594 12.1713 13.2566C13.3851 12.7538 14.6861 12.495 16 12.495V8Z" fill="white"/>
<path d="M16 24C17.9042 24 19.7897 23.6249 21.5489 22.8963C23.3081 22.1676 24.9066 21.0995 26.253 19.753C27.5995 18.4066 28.6676 16.8081 29.3963 15.0489C30.1249 13.2897 30.5 11.4042 30.5 9.5L26.005 9.5C26.005 10.8139 25.7462 12.1149 25.2434 13.3287C24.7406 14.5426 24.0037 15.6456 23.0746 16.5746C22.1456 17.5037 21.0426 18.2406 19.8287 18.7434C18.6149 19.2462 17.3139 19.505 16 19.505L16 24Z" fill="white"/>
<path d="M24 16C24 14.0958 23.6249 12.2103 22.8963 10.4511C22.1676 8.69187 21.0995 7.0934 19.753 5.74695C18.4066 4.4005 16.8081 3.33244 15.0489 2.60375C13.2897 1.87505 11.4042 1.5 9.5 1.5L9.5 5.995C10.8139 5.995 12.1149 6.25379 13.3287 6.75658C14.5426 7.25938 15.6456 7.99635 16.5746 8.9254C17.5037 9.85445 18.2406 10.9574 18.7434 12.1713C19.2462 13.3851 19.505 14.6861 19.505 16L24 16Z" fill="white"/>
<path d="M8 16C8 17.9042 8.37505 19.7897 9.10375 21.5489C9.83244 23.3081 10.9005 24.9066 12.247 26.253C13.5934 27.5995 15.1919 28.6676 16.9511 29.3963C18.7103 30.1249 20.5958 30.5 22.5 30.5L22.5 26.005C21.1861 26.005 19.8851 25.7462 18.6713 25.2434C17.4574 24.7406 16.3544 24.0037 15.4254 23.0746C14.4963 22.1456 13.7594 21.0426 13.2566 19.8287C12.7538 18.6149 12.495 17.3139 12.495 16L8 16Z" fill="white"/>
</svg>
