<svg width="50" height="50" viewBox="0 0 32 33" fill="none" xmlns="http://www.w3.org/2000/svg">
<path d="M16.0003 0C12.8357 -3.7737e-08 9.74223 0.9384 7.111 2.69653C4.47977 4.45467 2.42897 6.95357 1.21795 9.87724C0.0069255 12.8009 -0.309933 16.018 0.307441 19.1218C0.924815 22.2255 2.44869 25.0765 4.68637 27.3142C6.92405 29.5519 9.77503 31.0757 12.8788 31.6931C15.9825 32.3105 19.1997 31.9936 22.1233 30.7826C25.047 29.5716 27.5459 27.5208 29.304 24.8896C31.0622 22.2583 32.0006 19.1648 32.0006 16.0003H27.0405C27.0405 18.1838 26.393 20.3183 25.1799 22.1339C23.9668 23.9494 22.2425 25.3645 20.2252 26.2001C18.2078 27.0357 15.988 27.2543 13.8464 26.8283C11.7049 26.4023 9.73768 25.3509 8.19368 23.8069C6.64969 22.2629 5.59821 20.2957 5.17222 18.1541C4.74623 16.0125 4.96487 13.7927 5.80047 11.7754C6.63608 9.75805 8.05113 8.03381 9.86668 6.82069C11.6822 5.60758 13.8167 4.96009 16.0003 4.96009V0Z" fill="white"/>
<path d="M24 16C24 20.4192 20.4192 24 16.0012 24C11.582 24 8 20.4192 8 16L16 16L16.0012 8C20.4192 8 24 11.5804 24 16Z" fill="white"/>
</svg>
