<svg width="50" height="50" viewBox="0 0 32 33" fill="none" xmlns="http://www.w3.org/2000/svg">
<path d="M18 2H32L18 16V2Z" fill="white"/>
<path d="M18 31H32L18 17V31Z" fill="white"/>
<path d="M0.500001 31C2.40417 31 4.28969 30.6249 6.04891 29.8963C7.80813 29.1676 9.4066 28.0995 10.7531 26.753C12.0995 25.4066 13.1676 23.8081 13.8963 22.0489C14.6249 20.2897 15 18.4042 15 16.5C15 14.5958 14.6249 12.7103 13.8963 10.9511C13.1676 9.19187 12.0995 7.5934 10.7531 6.24695C9.4066 4.9005 7.80813 3.83244 6.04891 3.10375C4.28969 2.37505 2.40417 2 0.500001 2L0.500001 6.495C1.81388 6.495 3.11489 6.75379 4.32875 7.25659C5.54261 7.75938 6.64555 8.49635 7.5746 9.4254C8.50366 10.3544 9.24062 11.4574 9.74342 12.6713C10.2462 13.8851 10.505 15.1861 10.505 16.5C10.505 17.8139 10.2462 19.1149 9.74342 20.3287C9.24062 21.5426 8.50366 22.6456 7.57461 23.5746C6.64556 24.5037 5.54261 25.2406 4.32875 25.7434C3.11489 26.2462 1.81388 26.505 0.500001 26.505L0.500001 31Z" fill="white"/>
</svg>
